# xmcd
#
# Track frame offsets: 
#        150
#        11495
#        24565
#        35467
#        46910
#        57830
#        67505
#        80660
#        95310
#        105527
#        115475
#        125700
#        152715
#
# Disc length: 2204 seconds
#
# Revision: 3
# Processed by: cddbd v1.5.2PL0 Copyright (c) Steve Scherf et al.
# Submitted via: ExactAudioCopy v0.95b4
#
DISCID=9d089a0d
DTITLE=Various Artist - The Country Collection - Disk 6
DYEAR=1997
DGENRE=Country
TTITLE0=Kitty Wells - Heartbreak U.S.A.
TTITLE1=Roy Drusky - Three Hearts In A Tangle
TTITLE2=Carl Belew - Am I That Easy To Forget
TTITLE3=Ernie Ashworth - Talk Back Trembling Lips
TTITLE4=Billy Walker - Charlie's Shoes
TTITLE5=Ned Miller - Invisible Tears
TTITLE6=Sandy Posy - She's Got You
TTITLE7=Marion Worth - Shake Me I Rattle (Squeeze Me I Cry)
TTITLE8=Porter Wagoner - Green, Green, Grass of Home
TTITLE9=Ray Price - Make the World Go Away
TTITLE10=Glenn Yarborough - Baby the Rain Must Fall
TTITLE11=Jimmy Dean - To A Sleeping Beauty
TTITLE12=Kitty Wells - Makin' Believe
EXTD=
EXTT0=
EXTT1=
EXTT2=
EXTT3=
EXTT4=
EXTT5=
EXTT6=
EXTT7=
EXTT8=
EXTT9=
EXTT10=
EXTT11=
EXTT12=
PLAYORDER=
